<svg xmlns="http://www.w3.org/2000/svg" version="1.1" viewBox="-5.0 -10.0 110.0 135.0">
 <path d="m62 14.262c1.6211 0.55859 3.1992 1.2266 4.7305 2 1.0742 0.55859 2.3555 0.55859 3.4297 0l4.6719-2.3789-0.003906-0.003906c1.4727-0.76172 3.2695-0.47656 4.4336 0.69922l6.1797 6.1797v0.003907c1.1758 1.1602 1.4609 2.957 0.69922 4.4297l-2.3789 4.6719v-0.003906c-0.5625 1.0742-0.5625 2.3555 0 3.4297 0.76953 1.5312 1.4375 3.1133 2 4.7305 0.36719 1.1562 1.2773 2.0625 2.4375 2.4219l5 1.6094c1.582 0.49609 2.6562 1.9688 2.6406 3.6289v8.7422c-0.015625 1.6523-1.1055 3.1055-2.6914 3.5781l-5 1.6094c-1.1406 0.36328-2.0391 1.25-2.4102 2.3906-0.55859 1.6211-1.2266 3.1992-2 4.7305-0.55859 1.0781-0.55859 2.3594 0 3.4414l2.3789 4.6602 0.003906-0.003906c0.76172 1.4727 0.47656 3.2695-0.69922 4.4336l-6.1797 6.1797h-0.003907c-1.1602 1.1758-2.957 1.4609-4.4297 0.69922l-4.6719-2.3789h0.003906c-1.0742-0.5625-2.3555-0.5625-3.4297 0-1.5312 0.76953-3.1133 1.4375-4.7305 2-1.1562 0.36719-2.0625 1.2773-2.4219 2.4375l-1.6094 5c-0.49609 1.582-1.9688 2.6562-3.6289 2.6406h-8.6914c-1.6719 0.007812-3.1484-1.0859-3.6289-2.6914l-1.6094-5c-0.36328-1.1406-1.25-2.0391-2.3906-2.4102-1.6211-0.55859-3.1992-1.2266-4.7305-2-1.0781-0.55859-2.3594-0.55859-3.4414 0l-4.6602 2.3789 0.003906 0.003906c-1.4727 0.76172-3.2695 0.47656-4.4336-0.69922l-6.1797-6.1797v-0.003907c-1.1758-1.1602-1.4609-2.957-0.69922-4.4297l2.3789-4.6719v0.003906c0.5625-1.0742 0.5625-2.3555 0-3.4297-0.76953-1.5312-1.4375-3.1133-2-4.7305-0.36719-1.1562-1.2773-2.0625-2.4375-2.4219l-4.9492-1.5586c-1.5859-0.49609-2.6562-1.9727-2.6406-3.6289v-8.7422c-0.015626-1.6562 1.0547-3.1328 2.6406-3.6289l5-1.6094c1.1406-0.36328 2.0391-1.25 2.4102-2.3906 0.55859-1.6211 1.2266-3.1992 2-4.7305 0.55859-1.0781 0.55859-2.3594 0-3.4414l-2.3789-4.6602-0.003906 0.003906c-0.76172-1.4727-0.47656-3.2695 0.69922-4.4336l6.1797-6.1797h0.003907c1.1602-1.1758 2.957-1.4609 4.4297-0.69922l4.6719 2.3789h-0.003906c1.0742 0.5625 2.3555 0.5625 3.4297 0 1.5312-0.76953 3.1133-1.4375 4.7305-2 1.1562-0.36719 2.0625-1.2773 2.4219-2.4375l1.6094-5c0.49609-1.582 1.9688-2.6562 3.6289-2.6406h8.7422c1.6523 0.015625 3.1055 1.1055 3.5781 2.6914l1.6094 5c0.36328 1.1406 1.25 2.0391 2.3906 2.4102zm-12 15.578c-5.3477 0-10.473 2.125-14.254 5.9062s-5.9062 8.9062-5.9062 14.254 2.125 10.473 5.9062 14.254 8.9062 5.9062 14.254 5.9062 10.473-2.125 14.254-5.9062 5.9062-8.9062 5.9062-14.254c-0.003906-5.3477-2.1289-10.473-5.9062-14.254-3.7812-3.7773-8.9062-5.9023-14.254-5.9062z" fill-rule="evenodd"/>
<text x="0.0" y="117.5" font-size="5.0" font-weight="bold" font-family="Arbeit Regular, Helvetica, Arial-Unicode, Arial, Sans-serif" fill="#000000">Created by Funtasticon</text><text x="0.0" y="122.5" font-size="5.0" font-weight="bold" font-family="Arbeit Regular, Helvetica, Arial-Unicode, Arial, Sans-serif" fill="#000000">from Noun Project</text></svg>