<svg xmlns="http://www.w3.org/2000/svg" version="1.1" viewBox="-5.0 -10.0 110.0 135.0">
 <path d="m50 95c-3.3008 0-6.5-1.1992-9.1016-3.3008-0.89844-0.69922-1.1992-1.8984-0.80078-2.8984 0.39844-1 1.3984-1.6992 2.6016-1.6992h14.5c1.1016 0 2.1992 0.69922 2.6016 1.6992 0.39844 1 0.10156 2.1992-0.80078 2.8984-2.5 2.1016-5.6992 3.3008-9 3.3008zm30-11h-60c-3.1016 0-6-2.8984-6-6v-1c0-1.8984 0.89844-3.8008 2.5-4.8984l2.1016-1.5c2.3008-1.6016 3.3984-3.8984 3.3984-6.6992v-22.902c0-12.602 8.8008-22.398 20-26v-2c0-4.6992 3.3984-8 8-8s8 3.3008 8 8v2c11.199 3.6016 20 13.398 20 26v23c0 2.8008 1.1016 5.1016 3.3984 6.6992l2.1016 1.5c1.5 1 2.5 3 2.5 4.8984v1c0 3.0039-2.8984 5.9023-6 5.9023zm6.1992-46c-1.3008 0-2.5-1-2.8008-2.3008-1.1016-6.3008-4-12.102-8.3984-16.801-1.1016-1.1016-1-2.8984 0.19922-4 1.1992-1 2.8984-1 4 0.19922 5.1016 5.5 8.5 12.301 9.8008 19.699 0.30078 1.5-0.80078 3-2.3008 3.1992-0.19922 0.003906-0.39844 0.003906-0.5 0.003906zm-72.398 0h-0.5c-1.5-0.30078-2.6016-1.6992-2.3008-3.1992 1.3984-7.8984 5.1992-15.199 11-20.898 1.1016-1.1016 2.8984-1.1016 4 0 1.1016 1.1016 1.1016 2.8984 0 4-5 4.8984-8.1992 11.102-9.3984 17.898-0.20312 1.1992-1.4023 2.1992-2.8008 2.1992z"/>
<text x="0.0" y="117.5" font-size="5.0" font-weight="bold" font-family="Arbeit Regular, Helvetica, Arial-Unicode, Arial, Sans-serif" fill="#000000">Created by vectaicon</text><text x="0.0" y="122.5" font-size="5.0" font-weight="bold" font-family="Arbeit Regular, Helvetica, Arial-Unicode, Arial, Sans-serif" fill="#000000">from Noun Project</text></svg>